HIERARCHY
ROOT newVegas:Hips
{
	OFFSET 0.000000 96.479958 0.000000
	CHANNELS 6 Xposition Yposition Zposition Xrotation Yrotation Zrotation
	JOINT newVegas:Pelvis
	{
		OFFSET 0.000000 0.000000 0.000000
		CHANNELS 3 Xrotation Yrotation Zrotation
		JOINT newVegas:LeftUpLeg
		{
			OFFSET 18.735201 -5.666702 -4.541200
			CHANNELS 3 Xrotation Yrotation Zrotation
			JOINT newVegas:LeftLeg
			{
				OFFSET -0.021200 -31.938179 0.493100
				CHANNELS 3 Xrotation Yrotation Zrotation
				JOINT newVegas:LeftFoot
				{
					OFFSET 0.021200 -31.938179 -4.336299
					CHANNELS 3 Xrotation Yrotation Zrotation
					JOINT newVegas:LeftToeBase
					{
						OFFSET 0.943001 -26.722000 15.023500
						CHANNELS 3 Xrotation Yrotation Zrotation
						End Site
						{
							OFFSET 0.000000 30.670183 0.000000
						}
					}
				}
				JOINT newVegas:Left_PantLeg
				{
					OFFSET 0.663870 -9.044666 -1.108900
					CHANNELS 3 Xrotation Yrotation Zrotation
					End Site
					{
						OFFSET 1.415995 20.635357 0.000000
					}
				}
			}
		}
		JOINT newVegas:RightUpLeg
		{
			OFFSET -18.735201 -5.666702 -4.541200
			CHANNELS 3 Xrotation Yrotation Zrotation
			JOINT newVegas:RightLeg
			{
				OFFSET 0.018946 -31.938133 0.493100
				CHANNELS 3 Xrotation Yrotation Zrotation
				JOINT newVegas:RightFoot
				{
					OFFSET -0.018946 -31.938126 -4.336299
					CHANNELS 3 Xrotation Yrotation Zrotation
					JOINT newVegas:RightToeBase
					{
						OFFSET -0.943001 -26.722004 15.023500
						CHANNELS 3 Xrotation Yrotation Zrotation
						End Site
						{
							OFFSET 0.000000 30.670187 0.000000
						}
					}
				}
				JOINT newVegas:Right_PantLeg
				{
					OFFSET -0.661674 -9.044716 -1.108900
					CHANNELS 3 Xrotation Yrotation Zrotation
					End Site
					{
						OFFSET -1.415958 20.635269 0.000000
					}
				}
			}
		}
	}
	JOINT newVegas:Spine
	{
		OFFSET 0.000000 10.199997 -0.299500
		CHANNELS 3 Xrotation Yrotation Zrotation
		JOINT newVegas:Spine1
		{
			OFFSET 0.000000 11.900002 -1.516600
			CHANNELS 3 Xrotation Yrotation Zrotation
			JOINT newVegas:Spine2
			{
				OFFSET 0.000000 13.600006 -2.842500
				CHANNELS 3 Xrotation Yrotation Zrotation
				JOINT newVegas:Neck
				{
					OFFSET 0.000000 9.624100 -2.890100
					CHANNELS 3 Xrotation Yrotation Zrotation
					JOINT newVegas:Head
					{
						OFFSET 0.000000 14.068802 -1.351900
						CHANNELS 3 Xrotation Yrotation Zrotation
						JOINT newVegas:Hair_Back
						{
							OFFSET 0.000000 3.231903 -17.524799
							CHANNELS 3 Xrotation Yrotation Zrotation
							End Site
							{
								OFFSET 0.000000 19.849884 0.000000
							}
						}
						JOINT newVegas:Hair_Front
						{
							OFFSET 0.000000 31.260406 4.573800
							CHANNELS 3 Xrotation Yrotation Zrotation
							JOINT newVegas:Hair_Front1
							{
								OFFSET 0.000000 2.284103 11.993300
								CHANNELS 3 Xrotation Yrotation Zrotation
								JOINT newVegas:Hair_Front2
								{
									OFFSET 0.000000 2.284103 11.993300
									CHANNELS 3 Xrotation Yrotation Zrotation
									End Site
									{
										OFFSET 0.000000 12.208862 0.000000
									}
								}
							}
						}
						JOINT newVegas:Jowel
						{
							OFFSET 0.000000 -7.458206 6.864100
							CHANNELS 3 Xrotation Yrotation Zrotation
							End Site
							{
								OFFSET 0.000000 19.849884 0.000000
							}
						}
					}
				}
				JOINT newVegas:LeftShoulder
				{
					OFFSET 15.263000 10.923401 -0.547700
					CHANNELS 3 Xrotation Yrotation Zrotation
					JOINT newVegas:LeftArm
					{
						OFFSET 25.438599 -2.830597 -13.032500
						CHANNELS 3 Xrotation Yrotation Zrotation
						JOINT newVegas:LeftForeArm
						{
							OFFSET 29.960503 0.000000 0.000000
							CHANNELS 3 Xrotation Yrotation Zrotation
							JOINT newVegas:LeftHand
							{
								OFFSET 27.849251 0.000000 0.000000
								CHANNELS 3 Xrotation Yrotation Zrotation
								JOINT newVegas:LeftHandThumb1
								{
									OFFSET 4.487587 -3.305161 6.305391
									CHANNELS 3 Xrotation Yrotation Zrotation
									JOINT newVegas:LeftHandThumb2
									{
										OFFSET 5.480453 -3.164139 3.164143
										CHANNELS 3 Xrotation Yrotation Zrotation
										JOINT newVegas:LeftHandThumb3
										{
											OFFSET 5.159721 -2.978973 2.978967
											CHANNELS 3 Xrotation Yrotation Zrotation
											End Site
											{
												OFFSET 2.494507 5.926697 1.738678
											}
										}
									}
								}
								JOINT newVegas:LeftHandIndex1
								{
									OFFSET 18.578728 -0.527832 5.208049
									CHANNELS 3 Xrotation Yrotation Zrotation
									JOINT newVegas:LeftHandIndex2
									{
										OFFSET 3.192009 0.000000 0.000000
										CHANNELS 3 Xrotation Yrotation Zrotation
										JOINT newVegas:LeftHandIndex3
										{
											OFFSET 3.835129 0.000000 0.000000
											CHANNELS 3 Xrotation Yrotation Zrotation
											End Site
											{
												OFFSET -0.034599 3.816971 0.371180
											}
										}
									}
								}
								JOINT newVegas:LeftHandMiddle1
								{
									OFFSET 18.476105 0.000000 0.000000
									CHANNELS 3 Xrotation Yrotation Zrotation
									JOINT newVegas:LeftHandMiddle2
									{
										OFFSET 3.324875 0.000000 0.000000
										CHANNELS 3 Xrotation Yrotation Zrotation
										JOINT newVegas:LeftHandMiddle3
										{
											OFFSET 4.596550 0.000000 0.000000
											CHANNELS 3 Xrotation Yrotation Zrotation
											End Site
											{
												OFFSET 0.057701 4.578827 0.399218
											}
										}
									}
								}
								JOINT newVegas:LeftHandRing1
								{
									OFFSET 17.732719 0.121887 -4.201567
									CHANNELS 3 Xrotation Yrotation Zrotation
									JOINT newVegas:LeftHandRing2
									{
										OFFSET 2.733170 0.000000 0.000000
										CHANNELS 3 Xrotation Yrotation Zrotation
										JOINT newVegas:LeftHandRing3
										{
											OFFSET 3.178268 0.000000 0.000000
											CHANNELS 3 Xrotation Yrotation Zrotation
											End Site
											{
												OFFSET 0.119102 3.170624 0.185394
											}
										}
									}
								}
								JOINT newVegas:LeftHandPinky1
								{
									OFFSET 15.989624 -0.606689 -7.535461
									CHANNELS 3 Xrotation Yrotation Zrotation
									JOINT newVegas:LeftHandPinky2
									{
										OFFSET 2.538986 0.000000 0.000000
										CHANNELS 3 Xrotation Yrotation Zrotation
										JOINT newVegas:LeftHandPinky3
										{
											OFFSET 2.593102 0.000000 0.000000
											CHANNELS 3 Xrotation Yrotation Zrotation
											End Site
											{
												OFFSET -0.150902 2.584198 0.152708
											}
										}
									}
								}
							}
							JOINT newVegas:Left_Sleeve
							{
								OFFSET 0.267448 -0.649796 0.577675
								CHANNELS 3 Xrotation Yrotation Zrotation
								End Site
								{
									OFFSET 0.000000 15.991241 0.000000
								}
							}
							JOINT newVegas:Left_CapeC
							{
								OFFSET 15.715958 -8.608795 -6.935905
								CHANNELS 3 Xrotation Yrotation Zrotation
								JOINT newVegas:Left_CapeC1
								{
									OFFSET 0.000000 -8.688499 0.000000
									CHANNELS 3 Xrotation Yrotation Zrotation
									End Site
									{
										OFFSET 0.000000 8.688499 0.000000
									}
								}
							}
						}
						JOINT newVegas:Left_CapeB
						{
							OFFSET 26.118385 -8.608795 -7.079235
							CHANNELS 3 Xrotation Yrotation Zrotation
							JOINT newVegas:Left_CapeB1
							{
								OFFSET 0.000000 -8.688499 0.000000
								CHANNELS 3 Xrotation Yrotation Zrotation
								End Site
								{
									OFFSET 0.000000 8.688499 0.000000
								}
							}
						}
						JOINT newVegas:Left_CapeA
						{
							OFFSET 5.115639 -8.608795 -10.395809
							CHANNELS 3 Xrotation Yrotation Zrotation
							JOINT newVegas:Left_CapeA1
							{
								OFFSET 0.000000 -8.688499 0.000000
								CHANNELS 3 Xrotation Yrotation Zrotation
								End Site
								{
									OFFSET 0.000000 8.688499 0.000000
								}
							}
						}
					}
				}
				JOINT newVegas:RightShoulder
				{
					OFFSET -15.263000 10.923401 -0.547700
					CHANNELS 3 Xrotation Yrotation Zrotation
					JOINT newVegas:RightArm
					{
						OFFSET -25.438599 -2.830597 -13.032500
						CHANNELS 3 Xrotation Yrotation Zrotation
						JOINT newVegas:RightForeArm
						{
							OFFSET -29.960503 0.000000 0.000000
							CHANNELS 3 Xrotation Yrotation Zrotation
							JOINT newVegas:RightHand
							{
								OFFSET -27.849251 0.000000 0.000000
								CHANNELS 3 Xrotation Yrotation Zrotation
								JOINT newVegas:RightHandThumb1
								{
									OFFSET -4.487587 -3.305161 6.305391
									CHANNELS 3 Xrotation Yrotation Zrotation
									JOINT newVegas:RightHandThumb2
									{
										OFFSET -5.480453 -3.164139 3.164143
										CHANNELS 3 Xrotation Yrotation Zrotation
										JOINT newVegas:RightHandThumb3
										{
											OFFSET -5.159721 -2.978973 2.978967
											CHANNELS 3 Xrotation Yrotation Zrotation
											End Site
											{
												OFFSET -2.494507 5.926697 1.738678
											}
										}
									}
								}
								JOINT newVegas:RightHandIndex1
								{
									OFFSET -18.578728 -0.527832 5.208049
									CHANNELS 3 Xrotation Yrotation Zrotation
									JOINT newVegas:RightHandIndex2
									{
										OFFSET -3.192009 0.000000 0.000000
										CHANNELS 3 Xrotation Yrotation Zrotation
										JOINT newVegas:RightHandIndex3
										{
											OFFSET -3.835129 0.000000 0.000000
											CHANNELS 3 Xrotation Yrotation Zrotation
											End Site
											{
												OFFSET 0.034599 3.816971 0.371180
											}
										}
									}
								}
								JOINT newVegas:RightHandMiddle1
								{
									OFFSET -18.476105 0.000000 0.000000
									CHANNELS 3 Xrotation Yrotation Zrotation
									JOINT newVegas:RightHandMiddle2
									{
										OFFSET -3.324875 0.000000 0.000000
										CHANNELS 3 Xrotation Yrotation Zrotation
										JOINT newVegas:RightHandMiddle3
										{
											OFFSET -4.596550 0.000000 0.000000
											CHANNELS 3 Xrotation Yrotation Zrotation
											End Site
											{
												OFFSET -0.057701 4.578827 0.399218
											}
										}
									}
								}
								JOINT newVegas:RightHandRing1
								{
									OFFSET -17.732719 0.121887 -4.201567
									CHANNELS 3 Xrotation Yrotation Zrotation
									JOINT newVegas:RightHandRing2
									{
										OFFSET -2.733170 0.000000 0.000000
										CHANNELS 3 Xrotation Yrotation Zrotation
										JOINT newVegas:RightHandRing3
										{
											OFFSET -3.178268 0.000000 0.000000
											CHANNELS 3 Xrotation Yrotation Zrotation
											End Site
											{
												OFFSET -0.119102 3.170624 0.185394
											}
										}
									}
								}
								JOINT newVegas:RightHandPinky1
								{
									OFFSET -15.989624 -0.606689 -7.535461
									CHANNELS 3 Xrotation Yrotation Zrotation
									JOINT newVegas:RightHandPinky2
									{
										OFFSET -2.538986 0.000000 0.000000
										CHANNELS 3 Xrotation Yrotation Zrotation
										JOINT newVegas:RightHandPinky3
										{
											OFFSET -2.593102 0.000000 0.000000
											CHANNELS 3 Xrotation Yrotation Zrotation
											End Site
											{
												OFFSET 0.150902 2.584198 0.152708
											}
										}
									}
								}
							}
							JOINT newVegas:Right_CapeC
							{
								OFFSET -15.715958 -8.608795 -6.935905
								CHANNELS 3 Xrotation Yrotation Zrotation
								JOINT newVegas:Right_CapeC1
								{
									OFFSET 0.000000 -8.688499 0.000000
									CHANNELS 3 Xrotation Yrotation Zrotation
									End Site
									{
										OFFSET 0.000000 8.688499 0.000000
									}
								}
							}
							JOINT newVegas:Right_Sleeve
							{
								OFFSET -0.267448 -0.649994 0.577675
								CHANNELS 3 Xrotation Yrotation Zrotation
								End Site
								{
									OFFSET 0.000000 15.991302 0.000000
								}
							}
						}
						JOINT newVegas:Right_CapeA
						{
							OFFSET -5.115540 -8.608795 -10.395824
							CHANNELS 3 Xrotation Yrotation Zrotation
							JOINT newVegas:Right_CapeA1
							{
								OFFSET 0.000000 -8.688499 0.000000
								CHANNELS 3 Xrotation Yrotation Zrotation
								End Site
								{
									OFFSET 0.000000 8.688499 0.000000
								}
							}
						}
						JOINT newVegas:Right_CapeB
						{
							OFFSET -26.118187 -8.608795 -7.079266
							CHANNELS 3 Xrotation Yrotation Zrotation
							JOINT newVegas:Right_CapeB1
							{
								OFFSET 0.000000 -8.688499 0.000000
								CHANNELS 3 Xrotation Yrotation Zrotation
								End Site
								{
									OFFSET 0.000000 8.688499 0.000000
								}
							}
						}
					}
				}
				JOINT newVegas:Left_Collar
				{
					OFFSET 18.625099 8.655502 8.828100
					CHANNELS 3 Xrotation Yrotation Zrotation
					JOINT newVegas:Left_Collar1
					{
						OFFSET 14.783401 10.540405 -1.259500
						CHANNELS 3 Xrotation Yrotation Zrotation
						End Site
						{
							OFFSET 0.000000 18.199875 0.000000
						}
					}
				}
				JOINT newVegas:Collar_Back
				{
					OFFSET 0.000000 15.630707 -20.132601
					CHANNELS 3 Xrotation Yrotation Zrotation
					End Site
					{
						OFFSET 0.000000 22.523010 0.000000
					}
				}
				JOINT newVegas:Left_Peck
				{
					OFFSET 17.239599 -5.132599 25.482599
					CHANNELS 3 Xrotation Yrotation Zrotation
					End Site
					{
						OFFSET 0.000000 22.523010 0.000000
					}
				}
				JOINT newVegas:Right_Peck
				{
					OFFSET -17.239599 -5.132202 25.482599
					CHANNELS 3 Xrotation Yrotation Zrotation
					End Site
					{
						OFFSET 0.000000 22.523010 0.000000
					}
				}
				JOINT newVegas:Right_Collar
				{
					OFFSET -18.625099 8.655792 8.828100
					CHANNELS 3 Xrotation Yrotation Zrotation
					JOINT newVegas:Right_Collar1
					{
						OFFSET -14.783401 10.539993 -1.259500
						CHANNELS 3 Xrotation Yrotation Zrotation
						End Site
						{
							OFFSET 0.000000 18.199631 0.000000
						}
					}
				}
			}
		}
		JOINT newVegas:Belly
		{
			OFFSET 0.000000 -6.540398 9.014299
			CHANNELS 3 Xrotation Yrotation Zrotation
			End Site
			{
				OFFSET 0.000000 11.566666 0.000000
			}
		}
	}
	JOINT newVegas:ElvisFacialAnim_Joint
	{
		OFFSET 1.000000 -95.330101 -8.825800
		CHANNELS 3 Xrotation Yrotation Zrotation
		End Site
		{
			OFFSET 0.000000 35.315800 0.000000
		}
	}
}
MOTION
Frames: 4
Frame Time: 0.016667
-3.916342 83.270332 2.332077 3.004789 -58.203259 6.441860 -0.000000 -0.000001 -0.000000 -38.300877 6.311305 29.650695 47.035760 -9.823090 -10.645450 -10.051025 -1.875879 -11.958306 0.000000 0.000001 -0.000000 -0.000000 0.000001 0.000001 -34.545990 -3.812178 -30.706246 55.039177 4.468468 -7.825074 -22.927938 0.222209 25.858336 0.000000 -0.000000 -0.000000 -0.000002 0.000001 -0.000002 11.191383 0.081120 -2.661050 8.434588 0.027702 -5.592320 8.457050 0.027853 -5.591867 -3.775693 5.323455 1.581321 -3.775691 5.323441 1.581333 0.000003 -0.000000 -0.000000 -3.775686 5.323451 1.581322 -3.775690 5.323444 1.581323 -0.000000 0.000000 -0.000000 0.000003 -0.000000 -0.000000 -6.221658 -11.503847 -4.023809 -23.062120 9.568707 -36.639655 0.046167 -43.169442 -0.011137 22.743721 -5.685674 15.979238 -1.060971 -7.956208 8.492265 2.373393 19.986120 -2.038325 0.000000 -0.000004 -0.000001 13.340882 -1.006675 10.682269 -0.163443 0.317213 -31.105617 0.000002 0.000001 -0.000000 8.500041 -0.329650 -0.915283 0.231512 0.661166 -29.901837 0.000000 0.000001 -0.000002 6.121121 3.156105 -16.211138 0.046232 0.321031 -30.125465 -0.000001 0.000001 -0.000001 -5.637157 7.705247 -13.879847 0.225723 0.277881 -46.588358 -0.000000 0.000000 0.000000 -0.000001 0.000000 0.000004 -0.000001 0.000000 0.000004 -0.000001 -0.000001 0.000004 -0.000001 0.000002 -0.000002 0.000000 0.000002 -0.000004 -0.000001 0.000002 -0.000002 -0.000001 0.000002 -0.000001 -5.488243 10.658284 2.466535 -41.473776 -26.755629 30.079088 24.955303 111.863097 -23.308289 -8.702505 12.422950 -9.801961 0.262721 10.061705 -10.891940 1.381137 -17.410711 3.018952 0.000003 0.000003 -0.000004 19.443617 11.174423 -13.340181 -0.109205 -0.315760 18.035661 0.000002 -0.000004 0.000003 4.320478 2.436964 -4.811718 0.344830 -0.463978 26.890286 0.000001 -0.000001 0.000001 -7.011539 -10.695708 5.718772 0.110917 -0.095446 26.155841 -0.000003 -0.000001 -0.000004 -19.433563 -20.238180 5.987849 0.209886 -0.086867 36.844629 -0.000001 0.000003 0.000000 0.000001 0.000001 0.000002 -0.000002 0.000001 0.000002 -0.000001 0.000001 0.000003 0.000001 0.000003 -0.000000 0.000001 0.000004 -0.000002 0.000001 0.000003 -0.000000 0.000001 0.000004 -0.000000 -0.000002 -0.000001 -0.000001 -0.000002 -0.000001 -0.000001 -0.000002 -0.000001 -0.000001 -0.000002 -0.000001 -0.000001 -0.000002 -0.000001 -0.000001 -0.000002 -0.000001 -0.000001 -0.000002 -0.000001 -0.000001 -0.000000 -0.000001 0.000001 -0.000000 -0.000001 -0.000000 
-3.903948 83.258072 2.312892 3.029416 -58.177304 6.425433 -0.000000 0.000000 0.000000 -38.397083 6.283242 29.701173 47.078855 -9.881789 -10.632165 -10.031162 -1.871782 -11.956825 -0.000000 0.000001 0.000000 0.000001 0.000002 -0.000000 -34.548022 -3.802009 -30.672863 55.048862 4.449614 -7.803516 -22.936515 0.204008 25.913410 -0.000000 -0.000002 -0.000000 -0.000001 -0.000000 0.000000 11.154571 0.097491 -2.618552 8.361917 0.067336 -5.504500 8.384386 0.067493 -5.504037 -3.658579 5.339740 1.581940 -3.658566 5.339761 1.581933 0.000002 0.000001 -0.000000 -3.658577 5.339772 1.581932 -3.658584 5.339739 1.581934 -0.000000 0.000001 -0.000000 0.000002 0.000001 -0.000001 -5.897217 -11.434713 -4.094844 -23.105791 9.541861 -36.578170 -0.430867 -43.369089 0.211651 22.768248 -5.683123 16.086397 -0.879748 -7.813308 8.278620 2.373389 19.986119 -2.038325 0.000000 0.000001 -0.000008 13.334326 -1.036134 10.359190 -0.182379 0.317285 -31.248307 0.000000 -0.000001 0.000003 8.499504 -0.328313 -1.009016 0.251442 0.631747 -29.985982 0.000001 -0.000002 -0.000001 6.121512 3.146030 -16.098240 0.080327 0.300945 -30.077179 0.000001 -0.000001 0.000001 -5.734512 7.618939 -13.497781 0.245206 0.256964 -46.515320 -0.000001 0.000002 -0.000001 -0.000002 -0.000001 0.000001 -0.000002 -0.000001 0.000001 -0.000002 -0.000001 0.000001 -0.000000 0.000002 0.000001 0.000000 0.000002 -0.000003 -0.000000 0.000002 0.000001 -0.000001 0.000002 0.000001 -5.087702 10.716891 2.386531 -41.616708 -26.593135 29.801413 27.048717 111.876170 -25.310967 -8.426433 11.265948 -10.149976 0.161843 10.414146 -10.760816 1.389857 -17.409831 3.034341 0.000003 -0.000003 -0.000003 19.555207 10.955327 -14.215773 -0.109602 -0.315380 17.606180 0.000001 0.000000 0.000001 4.375301 2.490933 -5.767833 0.342242 -0.462205 26.411522 -0.000001 0.000001 0.000001 -7.223191 -10.390297 4.582369 0.110964 -0.091256 25.535029 0.000002 0.000001 0.000000 -19.709049 -19.569337 4.721560 0.207384 -0.083901 36.069290 -0.000001 0.000002 -0.000001 -0.000001 0.000001 0.000003 -0.000001 -0.000001 0.000003 -0.000001 0.000001 0.000003 0.000000 0.000000 0.000003 0.000000 0.000001 0.000002 0.000000 0.000000 0.000003 0.000000 0.000001 0.000003 -0.000000 -0.000001 0.000001 -0.000000 -0.000001 0.000001 -0.000000 -0.000001 0.000001 -0.000000 -0.000001 0.000001 -0.000000 -0.000001 0.000001 -0.000000 -0.000001 0.000001 -0.000000 -0.000001 0.000001 -0.000000 0.000001 0.000000 -0.000000 0.000000 0.000000 
-3.888117 83.236717 2.293918 3.066685 -58.161547 6.425296 -0.000000 0.000002 -0.000000 -38.503129 6.247709 29.749784 47.152013 -9.922016 -10.620518 -10.028814 -1.869494 -11.960365 -0.000000 0.000001 0.000000 -0.000000 0.000001 0.000001 -34.577081 -3.773140 -30.639696 55.085220 4.436032 -7.799560 -22.949161 0.177875 25.986851 -0.000000 0.000001 -0.000000 -0.000001 0.000000 -0.000001 11.182253 0.111812 -2.585324 8.418542 0.098064 -5.435018 8.441002 0.098159 -5.434540 -3.605985 5.352904 1.579602 -3.605992 5.352874 1.579603 -0.000000 -0.000002 0.000001 -3.605988 5.352884 1.579610 -3.605919 5.352888 1.579602 -0.000002 -0.000001 0.000000 -0.000000 -0.000002 0.000001 -5.908037 -11.406755 -4.124969 -23.202752 9.567582 -36.508372 -0.784466 -43.550078 0.142530 22.848567 -5.652414 16.178186 -0.879643 -7.742580 8.328717 2.373393 19.986117 -2.038325 0.000001 0.000002 -0.000004 13.268568 -0.549095 10.431558 -0.182229 0.317242 -31.198945 0.000000 -0.000000 -0.000001 8.506220 0.092368 -0.917200 0.251020 0.632004 -29.949686 0.000001 -0.000001 -0.000001 6.117625 3.143161 -16.039668 0.080075 0.300753 -30.030095 -0.000001 0.000001 -0.000001 -5.752456 7.603061 -13.427835 0.244826 0.257154 -46.451550 -0.000000 0.000000 0.000000 -0.000000 -0.000001 0.000002 -0.000000 -0.000001 0.000002 -0.000001 -0.000001 0.000002 0.000000 -0.000001 0.000001 0.000001 -0.000002 -0.000002 0.000000 -0.000001 0.000001 -0.000001 -0.000000 0.000001 -4.944351 10.745132 2.290180 -41.728132 -26.359913 29.303714 31.240186 112.174642 -29.235689 -7.457831 10.204591 -10.911868 0.253643 10.146811 -10.866901 1.389850 -17.409829 3.034315 -0.000000 -0.000006 -0.000003 19.555692 10.849957 -14.310302 -0.109772 -0.315207 17.427299 -0.000003 -0.000005 0.000000 4.395304 2.480613 -5.884550 0.341308 -0.463237 26.238718 0.000002 -0.000005 -0.000001 -7.253362 -10.295836 4.470743 0.110988 -0.090324 25.398058 0.000001 0.000002 0.000001 -19.678094 -19.367589 4.682566 0.206956 -0.083419 35.949328 -0.000001 -0.000000 -0.000000 0.000003 -0.000003 -0.000002 0.000002 0.000001 0.000000 0.000001 -0.000001 -0.000003 -0.000002 0.000002 -0.000001 -0.000002 0.000003 -0.000001 -0.000002 0.000002 -0.000001 -0.000002 0.000003 0.000000 -0.000000 0.000001 -0.000000 -0.000000 0.000001 -0.000000 -0.000000 0.000001 -0.000000 -0.000000 0.000001 -0.000000 -0.000000 0.000001 -0.000000 -0.000000 0.000001 -0.000000 -0.000000 0.000001 -0.000000 0.000000 -0.000001 -0.000000 -0.000000 0.000002 -0.000000 
-3.870076 83.216782 2.276160 3.109665 -58.154847 6.434077 -0.000000 0.000000 -0.000000 -38.602221 6.214077 29.789464 47.222541 -9.953682 -10.606693 -10.029992 -1.865346 -11.965559 -0.000000 -0.000001 -0.000000 0.000001 0.000001 -0.000000 -34.609907 -3.734113 -30.610797 55.113835 4.428346 -7.794973 -22.952291 0.148436 26.068940 -0.000000 0.000002 0.000000 0.000000 -0.000001 0.000000 11.206448 0.126067 -2.554001 8.467455 0.128417 -5.368924 8.489928 0.128551 -5.368458 -3.549033 5.365447 1.579072 -3.549040 5.365451 1.579084 0.000003 -0.000002 0.000000 -3.549036 5.365454 1.579074 -3.549029 5.365456 1.579075 -0.000000 -0.000000 0.000001 0.000003 -0.000002 0.000000 -5.914316 -11.396579 -4.145976 -23.347099 9.645233 -36.446760 -1.115200 -43.763419 0.039120 22.975537 -5.590291 16.230220 -0.833023 -7.696157 8.471578 2.373393 19.986117 -2.038327 0.000001 0.000000 -0.000006 13.148564 -0.152161 10.582372 -0.181317 0.317246 -31.121969 0.000001 -0.000002 -0.000002 8.510360 0.379046 -0.790061 0.249849 0.632809 -29.887890 -0.000000 -0.000000 -0.000001 6.301398 3.763312 -15.938171 0.079966 0.300727 -29.987474 -0.000001 0.000001 0.000003 -5.757957 7.590691 -13.381696 0.244370 0.257138 -46.375933 -0.000000 -0.000003 -0.000001 0.000005 0.000000 -0.000000 0.000005 0.000000 -0.000000 0.000004 0.000000 -0.000000 0.000004 -0.000001 0.000003 0.000005 -0.000001 0.000002 0.000004 -0.000001 0.000003 0.000003 -0.000000 0.000003 -4.707639 10.766307 2.133765 -41.787224 -26.098303 28.599059 29.848060 111.261193 -27.947469 -9.059283 9.227805 -12.053764 0.390468 9.767100 -10.996401 1.388977 -17.406069 3.036276 0.000002 -0.000005 -0.000003 19.537119 10.750081 -14.301129 -0.109895 -0.315064 17.255134 0.000001 0.000000 0.000002 4.410908 2.459040 -5.885784 0.340509 -0.463549 26.084931 -0.000001 0.000000 -0.000001 -7.077086 -10.207426 4.534575 0.110976 -0.089766 25.313716 0.000006 0.000001 -0.000001 -19.588559 -19.216737 4.827886 0.206852 -0.083258 35.913558 0.000003 -0.000002 0.000002 0.000001 0.000002 -0.000000 -0.000000 -0.000002 0.000000 0.000001 0.000003 -0.000000 -0.000001 0.000000 0.000000 -0.000001 0.000001 -0.000002 -0.000001 0.000000 0.000000 -0.000001 0.000001 -0.000000 -0.000000 0.000001 -0.000001 -0.000000 0.000001 -0.000001 -0.000000 0.000001 -0.000001 -0.000000 0.000001 -0.000001 -0.000000 0.000001 -0.000001 -0.000000 0.000001 -0.000001 -0.000000 0.000001 -0.000001 -0.000001 0.000004 -0.000001 -0.000000 0.000000 -0.000000 
